<svg width="297" height="218" viewBox="0 0 297 218" fill="none" xmlns="http://www.w3.org/2000/svg">
<path d="M16.1249 215.546C4.58835 192.876 -0.92135 167.619 0.125666 142.204C1.17268 116.79 8.7412 92.0714 22.1034 70.4273C35.4655 48.7832 54.1718 30.9412 76.4233 18.617C98.6749 6.29283 123.723 -0.098858 149.159 0.0566026C174.595 0.212063 199.563 6.90944 221.662 19.5047C243.762 32.0999 262.248 50.1693 275.345 71.9751C288.442 93.7809 295.707 118.59 296.444 144.016C297.18 169.441 291.362 194.629 279.549 217.156L148.253 148.307L16.1249 215.546Z" fill="#F5F4F9"/>
<path d="M16.1588 215.612C2.29012 188.394 -2.83166 157.555 1.49388 127.315C5.81941 97.0742 19.3811 68.9083 40.3241 46.6689L51.0752 56.7934C32.2184 76.8174 20.0076 102.178 16.113 129.406C12.2183 156.634 16.8299 184.4 29.317 208.908L16.1588 215.612Z" fill="#DF5050"/>
<path d="M128.453 1.38192C159.481 -2.79927 191.035 2.94953 218.595 17.8044L211.588 30.8041C186.774 17.429 158.362 12.2528 130.425 16.0175L128.453 1.38192Z" fill="#FFC926"/>
<path d="M43.4219 43.4761C65.5599 21.338 94.1381 6.77669 125.061 1.87903L127.371 16.4651C99.5286 20.8749 73.7972 33.9857 53.8644 53.9186L43.4219 43.4761Z" fill="#ED983D"/>
<path d="M222.38 19.916C244.006 32.4018 262.128 50.148 275.064 71.5079L262.432 79.158C250.785 59.9259 234.468 43.9475 214.996 32.7054L222.38 19.916Z" fill="#0D8B4C"/>
<path d="M276.644 74.1804C289.05 95.6683 295.864 119.926 296.463 144.731C297.061 169.536 291.424 194.094 280.069 216.155L266.888 209.371C277.107 189.516 282.18 167.413 281.642 145.089C281.103 122.764 274.97 100.932 263.805 81.5931L276.644 74.1804Z" fill="#095A31"/>
</svg>
