<svg xmlns="http://www.w3.org/2000/svg" width="120" height="31.635" viewBox="0 0 120 31.635">
  <g id="Group_34015" data-name="Group 34015" transform="translate(1074.5 -1872.683)">
    <path id="Path_43" data-name="Path 43" d="M556.166,340.123a2.461,2.461,0,0,0-2.89-1.944l-1.76.345a.176.176,0,0,1-.034,0,.146.146,0,0,1-.129-.087.139.139,0,0,1,.019-.156l1.234-1.539a2.451,2.451,0,0,0,.351-.6,2.382,2.382,0,0,0-1.365-3.111,2.334,2.334,0,0,0-.833-.154,2.435,2.435,0,0,0-2.238,1.526l-2.274,5.686a1.627,1.627,0,0,0-.1.367,1.566,1.566,0,0,0,1.338,1.764l5.929.814a2.536,2.536,0,0,0,.335.022,2.462,2.462,0,0,0,2.417-2.935Z" transform="translate(-1601.224 1548.302)" fill="#fdd535"/>
    <path id="Path_44" data-name="Path 44" d="M2787.046,454.986a2.209,2.209,0,0,1-1.384-.116,1.61,1.61,0,0,1-.916-.9l4.573-1.045a1.2,1.2,0,0,0,.906-1.443,3.478,3.478,0,0,0-1.754-2.443,4.181,4.181,0,0,0-2.989-.352,4.131,4.131,0,0,0-2.571,1.747,3.939,3.939,0,0,0-.518,3.24,4,4,0,0,0,1.853,2.706,4.257,4.257,0,0,0,3.223.431,4.522,4.522,0,0,0,2.843-1.978l-1.428-.981a.128.128,0,0,0-.1-.02.126.126,0,0,0-.081.054,2.6,2.6,0,0,1-1.659,1.1Zm-2.216-3.822a2.03,2.03,0,0,1,1.1-.669,1.707,1.707,0,0,1,1.195.129,1.605,1.605,0,0,1,.776.967l-3.46.791a1.554,1.554,0,0,1,.385-1.216Z" transform="translate(-3753.327 1436.993)" fill="#131a2d"/>
    <path id="Path_45" data-name="Path 45" d="M2565.685,454.991a2.207,2.207,0,0,1-1.384-.116,1.611,1.611,0,0,1-.916-.9l4.573-1.045a1.2,1.2,0,0,0,.906-1.444,3.474,3.474,0,0,0-1.754-2.443,4.181,4.181,0,0,0-2.988-.352,4.131,4.131,0,0,0-2.571,1.747,3.938,3.938,0,0,0-.518,3.24,4,4,0,0,0,1.853,2.707,4.257,4.257,0,0,0,3.222.431,4.521,4.521,0,0,0,2.842-1.978l-1.428-.981a.127.127,0,0,0-.178.034A2.6,2.6,0,0,1,2565.685,454.991Zm-2.215-3.821a2.025,2.025,0,0,1,1.1-.669,1.7,1.7,0,0,1,1.194.129,1.6,1.6,0,0,1,.776.967l-3.46.791a1.553,1.553,0,0,1,.387-1.218Z" transform="translate(-3540.327 1436.988)" fill="#131a2d"/>
    <path id="Path_46" data-name="Path 46" d="M2325.672,394.891a2.76,2.76,0,0,0-1.557-.882q.271-.12.376-.173a2.888,2.888,0,0,0,.376-.264,2.157,2.157,0,0,0,.8-1.838,2.731,2.731,0,0,0-.706-1.838,2.645,2.645,0,0,0-1.166-.693,5.887,5.887,0,0,0-1.842-.256h-3.93a.162.162,0,0,0-.162.162v10.368h4.6a3.924,3.924,0,0,0,3.038-.979,2.836,2.836,0,0,0,.753-1.944,2.457,2.457,0,0,0-.579-1.663Zm-5.467-3.955h1.128a3.454,3.454,0,0,1,1.472.226.944.944,0,0,1,.436.927.889.889,0,0,1-.473.912,3.761,3.761,0,0,1-1.452.211H2320.2Zm3.121,6.3a3.544,3.544,0,0,1-1.511.249h-1.609v-2.426h1.384a4.569,4.569,0,0,1,1.707.233.942.942,0,0,1,.535.965.985.985,0,0,1-.5.979Z" transform="translate(-3306.342 1494.349)" fill="#131a2d"/>
    <path id="Path_47" data-name="Path 47" d="M2122.356,398.171a2.56,2.56,0,0,1-.9.408,4.582,4.582,0,0,1-1.128.134,3.352,3.352,0,0,1-2.376-.784,3,3,0,0,1-.84-2.3v-3.536h-.732v-1.92h.732v-2.026a.068.068,0,0,1,.067-.067h2.356a.067.067,0,0,1,.067.067v2.026h2.144v1.92H2119.6v3.5a1.177,1.177,0,0,0,.28.84,1.039,1.039,0,0,0,.792.3,1.606,1.606,0,0,0,1.008-.32Z" transform="translate(-3112.427 1495.19)" fill="#131a2d"/>
    <path id="Path_48" data-name="Path 48" d="M2008.932,336.376a1.355,1.355,0,0,1,0-1.984,1.585,1.585,0,0,1,1.121-.4,1.621,1.621,0,0,1,1.12.384,1.231,1.231,0,0,1,.432.96,1.356,1.356,0,0,1-.432,1.032,1.564,1.564,0,0,1-1.12.408,1.583,1.583,0,0,1-1.121-.4Zm-.058,1.6h2.356a.067.067,0,0,1,.067.067v8.539h-2.5v-8.535a.067.067,0,0,1,.067-.067Z" transform="translate(-3008.599 1547.23)" fill="#131a2d"/>
    <path id="Path_49" data-name="Path 49" d="M1736.995,353.161v11.763h-2.384v-.99a3.077,3.077,0,0,1-2.562,1.12,4.358,4.358,0,0,1-2.145-.531,3.8,3.8,0,0,1-1.506-1.514,5.025,5.025,0,0,1,0-4.556,3.8,3.8,0,0,1,1.506-1.514,4.362,4.362,0,0,1,2.145-.53,3.011,3.011,0,0,1,2.45.983V353.16a.108.108,0,0,1,.108-.108h2.28a.108.108,0,0,1,.077.032A.107.107,0,0,1,1736.995,353.161Zm-3.117,9.349a2.748,2.748,0,0,0,0-3.472,2.2,2.2,0,0,0-3.12,0,2.411,2.411,0,0,0-.618,1.739,2.319,2.319,0,0,0,.669,1.685,2.008,2.008,0,0,0,1.517.7,2.055,2.055,0,0,0,1.553-.648Z" transform="translate(-2738.518 1528.888)" fill="#131a2d"/>
    <path id="Path_50" data-name="Path 50" d="M1500.1,455.973a2.206,2.206,0,0,1-1.384-.116,1.611,1.611,0,0,1-.916-.9l4.573-1.044a1.2,1.2,0,0,0,.907-1.444,3.48,3.48,0,0,0-1.753-2.443,4.181,4.181,0,0,0-2.989-.353,4.131,4.131,0,0,0-2.571,1.747,3.939,3.939,0,0,0-.518,3.24,4,4,0,0,0,1.852,2.706,4.256,4.256,0,0,0,3.223.431,4.52,4.52,0,0,0,2.842-1.978l-1.428-.981a.127.127,0,0,0-.177.034,2.6,2.6,0,0,1-1.661,1.105Zm-2.215-3.822a2.028,2.028,0,0,1,1.1-.669,1.706,1.706,0,0,1,1.194.129,1.6,1.6,0,0,1,.776.967l-3.46.79a1.556,1.556,0,0,1,.39-1.216Z" transform="translate(-2514.721 1436.044)" fill="#131a2d"/>
    <g id="_Group_" data-name="&lt;Group&gt;" transform="translate(-1024.877 1885.63)">
      <path id="Path_51" data-name="Path 51" d="M1354.373,452.561l.007-.04a3.875,3.875,0,0,1,1.2-1.7,2.411,2.411,0,0,0-2.555-.021,3.791,3.791,0,0,0-1.09.844v-.957a.113.113,0,0,0-.113-.113h-2.107a.124.124,0,0,0-.124.124v7.982h2.341v-3.51a3.257,3.257,0,0,1,.5-1.891,1.706,1.706,0,0,1,1.5-.716h.436Z" transform="translate(-1349.595 -450.442)" fill="#131a2d"/>
    </g>
    <g id="_Group_2" data-name="&lt;Group&gt;" transform="translate(-1034.534 1883.379)">
      <path id="Path_52" data-name="Path 52" d="M1101.919,391.145h-2.549a.156.156,0,0,0-.134.071c-.357.552-2.713,4.133-3.769,4.313a.068.068,0,0,1-.056-.014.067.067,0,0,1-.024-.052V391.3a.156.156,0,0,0-.157-.157h-2.03a.157.157,0,0,0-.157.157v10.356h2.341v-4.013a.112.112,0,0,1,.126-.112,5.554,5.554,0,0,1,3.107,1.706,3.1,3.1,0,0,1,.937,2.418h2.341a6.061,6.061,0,0,0-3.267-5.194c-.588-.318-.543-.33-.1-.843,2.287-2.676,3.177-3.789,3.508-4.223a.157.157,0,0,0-.124-.251Z" transform="translate(-1093.046 -391.144)" fill="#131a2d"/>
    </g>
    <g id="Group_1" data-name="Group 1" transform="translate(-1065.417 1876.002)">
      <path id="Path_53" data-name="Path 53" d="M561.792,347.871l-1.76.344a.526.526,0,0,1-.512-.846l1.232-1.539a2.069,2.069,0,0,0,.3-.508,2,2,0,0,0-3.735-1.458l-2.274,5.686a1.241,1.241,0,0,0-.074.28,1.188,1.188,0,0,0,1.015,1.338H556l5.907.811a2.139,2.139,0,0,0,.684-.019,2.085,2.085,0,1,0-.8-4.092Z" transform="translate(-544.199 -337.032)" fill="none"/>
      <path id="Path_54" data-name="Path 54" d="M360.967,291.381a1.011,1.011,0,1,0-1.381-.37,1.011,1.011,0,0,0,1.381.37Z" transform="translate(-356.081 -285.957)" fill="#131a2d"/>
      <path id="Path_55" data-name="Path 55" d="M271.77,342.888a1.011,1.011,0,1,0-1.381-.37A1.011,1.011,0,0,0,271.77,342.888Z" transform="translate(-270.253 -335.517)" fill="#131a2d"/>
      <path id="Path_56" data-name="Path 56" d="M345.73,198.807a6.082,6.082,0,0,0-8.228-2.269l-.078.044a5.962,5.962,0,0,0-.535.346l-.013.009a10.09,10.09,0,0,0-4.007,5.7q-.057.216-.106.434a.4.4,0,0,1-.574.268,12.745,12.745,0,0,0-2.514-.969q-.462-.124-.931-.212a1,1,0,0,0-1.124.65q-.158.45-.281.912a12.646,12.646,0,0,0,1.271,9.627l.015.027.035.061.039.067a12.655,12.655,0,0,0,8.545,5.969,1,1,0,0,0,1.124-.65q.158-.451.281-.912a12.756,12.756,0,0,0,.417-2.639.4.4,0,0,1,.52-.363,10.1,10.1,0,0,0,6.576-.152,6.082,6.082,0,0,0,.251-11.62,6.058,6.058,0,0,0-.683-4.328Zm-.928,9.445a2.085,2.085,0,0,1-1.646,2.447,2.134,2.134,0,0,1-.684.019l-5.907-.811h-.021a1.188,1.188,0,0,1-1.015-1.338,1.238,1.238,0,0,1,.074-.28l2.274-5.686a2,2,0,0,1,3.735,1.458,2.068,2.068,0,0,1-.3.508l-1.232,1.538a.526.526,0,0,0,.512.846l1.76-.344a2.085,2.085,0,0,1,2.446,1.642Z" transform="translate(-324.763 -195.767)" fill="#131a2d"/>
    </g>
    <path id="Rectangle_160" data-name="Rectangle 160" d="M0,0H120V31.635H0Z" transform="translate(-1074.5 1872.683)" fill="none"/>
  </g>
</svg>
